<svg width="267" height="32" viewBox="0 0 267 32" fill="none" xmlns="http://www.w3.org/2000/svg">
<g filter="url(#filter0_b_30_15)">
<g clip-path="url(#clip0_30_15)">
<path fill-rule="evenodd" clip-rule="evenodd" d="M10.0754 3.42843C10.0754 1.53496 11.622 0 13.5297 0H38.8613C40.769 0 42.3156 1.53496 42.3156 3.42843V28.5702C42.3156 30.4636 40.769 31.9986 38.8613 31.9986H13.5297C11.622 31.9986 10.0754 30.4636 10.0754 28.5702V3.42843ZM21.4837 10.6199V21.6988C21.4846 21.8841 21.535 22.0659 21.6295 22.2258C21.7241 22.3856 21.8596 22.5178 22.0223 22.6089C22.1849 22.7001 22.3689 22.7469 22.5557 22.7447C22.7424 22.7425 22.9253 22.6913 23.0857 22.5964L32.6461 17.0569C32.8071 16.9646 32.9408 16.8319 33.0337 16.6721C33.1267 16.5123 33.1755 16.331 33.1755 16.1465C33.1755 15.962 33.1267 15.7808 33.0337 15.6209C32.9408 15.4611 32.8071 15.3284 32.6461 15.2361L23.0857 9.72231C22.9253 9.62736 22.7424 9.57619 22.5557 9.57397C22.3689 9.57178 22.1849 9.61861 22.0223 9.70972C21.8596 9.80084 21.7241 9.93304 21.6295 10.0929C21.535 10.2527 21.4846 10.4345 21.4837 10.6199Z" fill="#FF7700"/>
</g>
<g filter="url(#filter1_d_30_15)">
<path d="M64.9749 7.78125H67.4554L71.1078 18.2207L74.7601 7.78125H77.2406L72.1039 22H70.1117L64.9749 7.78125ZM63.6371 7.78125H66.1078L66.557 17.957V22H63.6371V7.78125ZM76.1078 7.78125H78.5882V22H75.6585V17.957L76.1078 7.78125ZM82.8363 7.78125L85.805 14.2656L88.7738 7.78125H91.9671L87.2894 16.8242V22H84.3206V16.8242L79.6331 7.78125H82.8363ZM99.5843 7.78125H102.065L105.717 18.2207L109.369 7.78125H111.85L106.713 22H104.721L99.5843 7.78125ZM98.2464 7.78125H100.717L101.166 17.957V22H98.2464V7.78125ZM110.717 7.78125H113.198V22H110.268V17.957L110.717 7.78125ZM127.446 14.5586V15.2324C127.446 16.3132 127.299 17.2832 127.006 18.1426C126.713 19.002 126.3 19.7344 125.766 20.3398C125.232 20.9388 124.594 21.3978 123.852 21.7168C123.116 22.0358 122.299 22.1953 121.401 22.1953C120.509 22.1953 119.692 22.0358 118.95 21.7168C118.214 21.3978 117.576 20.9388 117.035 20.3398C116.495 19.7344 116.075 19.002 115.776 18.1426C115.483 17.2832 115.336 16.3132 115.336 15.2324V14.5586C115.336 13.4714 115.483 12.5013 115.776 11.6484C116.069 10.7891 116.482 10.0566 117.016 9.45117C117.556 8.8457 118.194 8.38346 118.93 8.06445C119.672 7.74544 120.489 7.58594 121.381 7.58594C122.28 7.58594 123.097 7.74544 123.832 8.06445C124.575 8.38346 125.213 8.8457 125.746 9.45117C126.287 10.0566 126.703 10.7891 126.996 11.6484C127.296 12.5013 127.446 13.4714 127.446 14.5586ZM124.487 15.2324V14.5391C124.487 13.7839 124.418 13.1198 124.282 12.5469C124.145 11.974 123.943 11.4922 123.676 11.1016C123.409 10.7109 123.084 10.418 122.7 10.2227C122.315 10.0208 121.876 9.91992 121.381 9.91992C120.886 9.91992 120.447 10.0208 120.063 10.2227C119.685 10.418 119.363 10.7109 119.096 11.1016C118.836 11.4922 118.637 11.974 118.5 12.5469C118.364 13.1198 118.295 13.7839 118.295 14.5391V15.2324C118.295 15.9811 118.364 16.6452 118.5 17.2246C118.637 17.7975 118.839 18.2826 119.106 18.6797C119.373 19.0703 119.698 19.3665 120.082 19.5684C120.466 19.7702 120.906 19.8711 121.401 19.8711C121.896 19.8711 122.335 19.7702 122.719 19.5684C123.103 19.3665 123.425 19.0703 123.686 18.6797C123.946 18.2826 124.145 17.7975 124.282 17.2246C124.418 16.6452 124.487 15.9811 124.487 15.2324ZM134.467 19.0312L137.817 7.78125H141.078L136.127 22H133.979L134.467 19.0312ZM131.381 7.78125L134.721 19.0312L135.229 22H133.061L128.139 7.78125H131.381ZM145.522 7.78125V22H142.602V7.78125H145.522ZM157.807 19.7148V22H150.239V19.7148H157.807ZM151.196 7.78125V22H148.266V7.78125H151.196ZM156.821 13.5723V15.7988H150.239V13.5723H156.821ZM157.797 7.78125V10.0762H150.239V7.78125H157.797ZM173.637 19.7148V22H166.479V19.7148H173.637ZM167.426 7.78125V22H164.496V7.78125H167.426ZM178.432 7.78125V22H175.512V7.78125H178.432ZM188.578 18.2793C188.578 18.0254 188.539 17.7975 188.461 17.5957C188.39 17.3874 188.253 17.1986 188.051 17.0293C187.849 16.8535 187.566 16.681 187.202 16.5117C186.837 16.3424 186.365 16.1667 185.785 15.9844C185.141 15.776 184.529 15.5417 183.95 15.2812C183.377 15.0208 182.869 14.7181 182.426 14.373C181.99 14.0215 181.645 13.6146 181.391 13.1523C181.144 12.6901 181.02 12.153 181.02 11.541C181.02 10.9486 181.15 10.4115 181.41 9.92969C181.671 9.44141 182.035 9.02474 182.504 8.67969C182.973 8.32812 183.526 8.05794 184.164 7.86914C184.809 7.68034 185.515 7.58594 186.284 7.58594C187.332 7.58594 188.246 7.77474 189.028 8.15234C189.809 8.52995 190.414 9.04753 190.844 9.70508C191.28 10.3626 191.498 11.1146 191.498 11.9609H188.588C188.588 11.5443 188.5 11.1797 188.325 10.8672C188.155 10.5482 187.895 10.2975 187.543 10.1152C187.198 9.93294 186.762 9.8418 186.235 9.8418C185.727 9.8418 185.304 9.91992 184.965 10.0762C184.627 10.2259 184.373 10.431 184.203 10.6914C184.034 10.9453 183.95 11.2318 183.95 11.5508C183.95 11.7917 184.008 12.0098 184.125 12.2051C184.249 12.4004 184.431 12.5827 184.672 12.752C184.913 12.9212 185.209 13.0807 185.561 13.2305C185.912 13.3802 186.319 13.5267 186.782 13.6699C187.556 13.9043 188.237 14.168 188.823 14.4609C189.415 14.7539 189.91 15.0827 190.307 15.4473C190.704 15.8118 191.004 16.2253 191.205 16.6875C191.407 17.1497 191.508 17.6738 191.508 18.2598C191.508 18.8783 191.388 19.4316 191.147 19.9199C190.906 20.4082 190.558 20.8216 190.102 21.1602C189.646 21.4987 189.103 21.7559 188.471 21.9316C187.84 22.1074 187.133 22.1953 186.352 22.1953C185.649 22.1953 184.955 22.1042 184.272 21.9219C183.588 21.7331 182.966 21.4499 182.407 21.0723C181.853 20.6947 181.41 20.2129 181.078 19.627C180.746 19.041 180.58 18.3477 180.58 17.5469H183.52C183.52 17.9896 183.588 18.3639 183.725 18.6699C183.862 18.9759 184.054 19.2233 184.301 19.4121C184.555 19.6009 184.855 19.7376 185.2 19.8223C185.551 19.9069 185.935 19.9492 186.352 19.9492C186.86 19.9492 187.276 19.8776 187.602 19.7344C187.934 19.5911 188.178 19.3926 188.334 19.1387C188.497 18.8848 188.578 18.5983 188.578 18.2793ZM199.858 7.78125V22H196.938V7.78125H199.858ZM204.233 7.78125V10.0762H192.631V7.78125H204.233Z" fill="#FF7700"/>
</g>
</g>
<defs>
<filter id="filter0_b_30_15" x="6.07544" y="-4" width="202.157" height="39.9987" filterUnits="userSpaceOnUse" color-interpolation-filters="sRGB">
<feFlood flood-opacity="0" result="BackgroundImageFix"/>
<feGaussianBlur in="BackgroundImageFix" stdDeviation="2"/>
<feComposite in2="SourceAlpha" operator="in" result="effect1_backgroundBlur_30_15"/>
<feBlend mode="normal" in="SourceGraphic" in2="effect1_backgroundBlur_30_15" result="shape"/>
</filter>
<filter id="filter1_d_30_15" x="62.637" y="6.58594" width="144.596" height="18.6094" filterUnits="userSpaceOnUse" color-interpolation-filters="sRGB">
<feFlood flood-opacity="0" result="BackgroundImageFix"/>
<feColorMatrix in="SourceAlpha" type="matrix" values="0 0 0 0 0 0 0 0 0 0 0 0 0 0 0 0 0 0 127 0" result="hardAlpha"/>
<feMorphology radius="1" operator="dilate" in="SourceAlpha" result="effect1_dropShadow_30_15"/>
<feOffset dx="1" dy="1"/>
<feGaussianBlur stdDeviation="0.5"/>
<feComposite in2="hardAlpha" operator="out"/>
<feColorMatrix type="matrix" values="0 0 0 0 0 0 0 0 0 0 0 0 0 0 0 0 0 0 1 0"/>
<feBlend mode="normal" in2="BackgroundImageFix" result="effect1_dropShadow_30_15"/>
<feBlend mode="normal" in="SourceGraphic" in2="effect1_dropShadow_30_15" result="shape"/>
</filter>
<clipPath id="clip0_30_15">
<rect x="10.0754" width="32.2402" height="31.9986" rx="9" fill="white"/>
</clipPath>
</defs>
</svg>
